<svg xmlns="http://www.w3.org/2000/svg" width="500" height="500" style="width:100%;height:100%;content-visibility:visible"><defs><clipPath id="a"><path d="M0 0h500v500H0z"/></clipPath></defs><g display="block" clip-path="url(#a)"><path stroke-linecap="round" stroke-linejoin="round" stroke="#08A88A" stroke-width="12.6" d="M321.257 105.454c-.014.265-.021.532-.021.801 0 8.436-6.838 15.274-15.274 15.274s-15.274-6.838-15.274-15.274-6.837-15.274-15.273-15.274-15.274 6.838-15.274 15.274-6.838 15.274-15.274 15.274-15.274-6.838-15.274-15.274-6.838-15.274-15.274-15.274-15.274 6.838-15.274 15.274-6.838 15.274-15.274 15.274-15.274-6.838-15.274-15.274-6.838-15.274-15.274-15.274-15.274 6.838-15.274 15.274l.001.579M121.871 409.946v-86.731h40.187v86.731" fill="none"/><path stroke-linecap="round" stroke-linejoin="round" stroke="#121331" stroke-width="12.6" d="M93.632 409.946h311.343v-189.03l-77.836 77.836v-77.836l-77.835 77.836v-77.836l-77.836 77.836-11.119-155.672h-44.478L93.632 298.752v111.194z" fill="none"/><path stroke-linecap="round" stroke-linejoin="round" stroke="#08A88A" stroke-width="12.6" d="M268.647 358.997h-80.06v-31.535h80.06v31.535zM375.393 358.997h-80.06v-31.535h80.06v31.535z" fill="none"/></g></svg>