<svg xmlns="http://www.w3.org/2000/svg" width="500" height="500" style="width:100%;height:100%;content-visibility:visible"><defs><filter id="a" filterUnits="objectBoundingBox" x="0%" y="0%" width="100%" height="100%"><feComponentTransfer in="SourceGraphic"><feFuncA type="table" tableValues="1.0 0.0"/></feComponentTransfer></filter><filter id="b" filterUnits="objectBoundingBox" x="0%" y="0%" width="100%" height="100%"><feComponentTransfer in="SourceGraphic"><feFuncA type="table" tableValues="1.0 0.0"/></feComponentTransfer></filter><clipPath id="c"><path d="M0 0h500v500H0z"/></clipPath><mask id="d"><g filter="url(#b)"><g display="block"><path fill="#121331" d="M-.666 160.119c-14.779 0-26.948-11.614-27.637-26.377l-11.895-242.966c-1.021-21.877 16.441-52.238 38.342-52.238 21.76 0 39.169 30.136 38.357 51.881l-9.52 243.065c-.555 14.868-12.769 26.635-27.647 26.635z" transform="rotate(90 0 250)"/><path stroke-linecap="round" stroke-linejoin="round" fill-opacity="0" stroke="#121331" stroke-width="0" d="M89.881 249.334s0 0 0 0c0-14.779 11.614-26.948 26.377-27.637l242.966-11.895c21.877-1.021 52.238 16.441 52.238 38.342 0 0 0 0 0 0 0 21.76-30.136 39.169-51.881 38.357l-243.065-9.52c-14.868-.555-26.635-12.769-26.635-27.647z"/></g></g></mask></defs><g clip-path="url(#c)"><path stroke-linecap="round" stroke-linejoin="round" stroke="#08A88A" stroke-width="12.6" d="M373.527 234.707c7.421 7.421 7.421 19.453 0 26.874" fill="none" display="block"/><path stroke-linecap="round" stroke-linejoin="round" stroke="#121331" stroke-width="12.6" d="M155.52 218.145l-11.785-30.772a27.738 27.738 0 00-25.904-17.818h-10.949l9 50.59" fill="none" display="block"/><g mask="url(#d)" display="block"><path stroke-linecap="round" stroke-linejoin="round" stroke="#08A88A" stroke-width="12.6" d="M231.122 114.525h12.654M235.624 167.898h12.654" fill="none"/><path stroke-linecap="round" stroke-linejoin="round" stroke="#121331" stroke-width="12.6" d="M330.06 209.387L287.233 83.895a33.594 33.594 0 00-31.793-22.743h-18.783L250 153.145v62.193" fill="none"/></g><g mask="url(#e)" display="block"><path stroke-linecap="round" stroke-linejoin="round" stroke="#121331" stroke-width="12.6" d="M149.277 220.08l209.947-10.278c21.877-1.021 52.238 16.441 52.238 38.342 0 0 0 0 0 0 0 21.76-30.136 39.169-51.881 38.357l-243.065-9.52c-14.868-.555-26.635-12.769-26.635-27.647 0 0 0 0 0 0s0 0 0 0c0-14.779 11.614-26.948 26.377-27.637l33.019-1.617" fill="none"/></g><g display="block"><path stroke-linecap="round" stroke-linejoin="round" stroke="#121331" stroke-width="12.6" d="M155.52 280.035l-11.785 30.773a27.738 27.738 0 01-25.904 17.818h-10.949l9-50.591" fill="none"/><path stroke-linecap="round" stroke-linejoin="round" stroke="#08A88A" stroke-width="12.6" d="M169.94 247.958l-31.087-.043-22.286.043-.067-.083" fill="none"/></g><g display="block"><path stroke-linecap="round" stroke-linejoin="round" stroke="#08A88A" stroke-width="12.6" d="M231.122 381.39h12.654M235.624 328.017h12.654" fill="none"/></g><path stroke-linecap="round" stroke-linejoin="round" stroke="#121331" stroke-width="12.6" d="M330.06 286.529L287.233 412.02a33.594 33.594 0 01-31.793 22.743h-18.783L250 342.77v-60.443" fill="none" display="block"/></g></svg>